<svg width="127" height="54" viewBox="0 0 127 54" fill="none" xmlns="http://www.w3.org/2000/svg">
<g clip-path="url(#clip0_22_1976)">
<path d="M0.590004 4.16003H15.43V43.88C15.14 43.9 14.89 43.92 14.64 43.92C10.23 43.92 5.82 43.91 1.4 43.94C0.740004 43.94 0.520004 43.79 0.520004 43.09C0.540004 30.37 0.530004 17.64 0.540004 4.92003C0.540004 4.69003 0.560004 4.47003 0.580004 4.16003H0.590004Z" fill="white"/>
<path d="M37.62 11.17C35.45 8.95001 33.26 6.75001 31.04 4.59001C30.77 4.32001 30.29 4.15001 29.9 4.14001C26.26 4.11001 22.61 4.12001 18.97 4.12001C18.7 4.12001 18.42 4.15001 18.13 4.16001V12.92H23.19V36.08H18.17V43.93C22.24 43.93 26.24 43.93 30.24 43.91C30.5 43.91 30.79 43.68 31 43.48C33.21 41.3 35.42 39.12 37.59 36.91C37.86 36.64 38.05 36.17 38.06 35.79C38.09 27.94 38.09 20.09 38.06 12.24C38.06 11.88 37.87 11.44 37.62 11.18V11.17Z" fill="white"/>
<path d="M18.13 9.65002H28.1L23.19 12.92H18.13V9.65002Z" fill="#B0B3B2"/>
<path d="M18.13 39.32H28.1L23.19 36.04H18.13V39.32Z" fill="#B0B3B2"/>
<path d="M89.29 4.16003H104.13V43.88C103.84 43.9 103.59 43.92 103.34 43.92C98.93 43.92 94.52 43.91 90.1 43.94C89.44 43.94 89.22 43.79 89.22 43.09C89.24 30.37 89.23 17.64 89.24 4.92003C89.24 4.69003 89.26 4.47003 89.28 4.16003H89.29Z" fill="white"/>
<path d="M126.32 11.17C124.15 8.95001 121.96 6.75001 119.74 4.59001C119.47 4.32001 118.99 4.15001 118.6 4.14001C114.96 4.11001 111.31 4.12001 107.67 4.12001C107.4 4.12001 107.12 4.15001 106.83 4.16001V12.92H111.89V36.08H106.87V43.93C110.94 43.93 114.94 43.93 118.94 43.91C119.2 43.91 119.49 43.68 119.7 43.48C121.91 41.3 124.12 39.12 126.29 36.91C126.56 36.64 126.75 36.17 126.76 35.79C126.79 27.94 126.79 20.09 126.76 12.24C126.76 11.88 126.57 11.44 126.32 11.18V11.17Z" fill="white"/>
<path d="M106.83 9.65002H116.8L111.89 12.92H106.83V9.65002Z" fill="#B0B3B2"/>
<path d="M106.83 39.32H116.8L111.89 36.04H106.83V39.32Z" fill="#B0B3B2"/>
<path d="M1.26 52.95H4.86V48.54H6.12V52.69C6.12 53.71 5.79 53.97 4.77 53.97H1.35C0.33 53.97 0 53.71 0 52.69V48.54H1.26V52.95Z" fill="#F8DE2D"/>
<path d="M9.71 52.3401C9.92 52.3401 9.96 52.4701 9.96 52.7301V53.5801C9.96 53.9701 9.88 53.9701 9.52 53.9701H8.58C8.37 53.9701 8.33 53.8401 8.33 53.5801V52.7301C8.33 52.3401 8.41 52.3401 8.77 52.3401H9.71Z" fill="#F8DE2D"/>
<path d="M13.32 49.4901V50.66H16.71C17.73 50.66 18.07 50.92 18.07 51.94V52.69C18.07 53.71 17.73 53.9701 16.71 53.9701H13.35C12.33 53.9701 11.99 53.71 11.99 52.69V52.5401L13.11 52.3101V52.9501H16.95V51.71H13.56C12.54 51.71 12.21 51.45 12.21 50.43V49.8301C12.21 48.8101 12.54 48.55 13.56 48.55H16.64C17.61 48.55 17.99 48.8001 17.99 49.7401V49.8601L16.87 50.12V49.5H13.31L13.32 49.4901Z" fill="#F8DE2D"/>
<path d="M21.5 52.3401C21.71 52.3401 21.75 52.4701 21.75 52.7301V53.5801C21.75 53.9701 21.67 53.9701 21.31 53.9701H20.37C20.16 53.9701 20.12 53.8401 20.12 53.5801V52.7301C20.12 52.3401 20.2 52.3401 20.56 52.3401H21.5Z" fill="#F8DE2D"/>
<path d="M27.93 48.54H31.42C33.45 48.54 34.53 49.54 34.53 51.22C34.53 52.24 34.09 53.08 33.33 53.55C32.8 53.88 32.07 53.97 31.1 53.97H27.93V48.54ZM30.82 52.95C32.42 52.95 33.22 52.55 33.22 51.2C33.22 50.09 32.62 49.51 31.43 49.51H29.19V52.95H30.82Z" fill="white"/>
<path d="M37.96 48.54H41.96C42.98 48.54 43.31 48.8 43.31 49.82V52.68C43.31 53.7 42.98 53.96 41.96 53.96H37.96C36.94 53.96 36.61 53.7 36.61 52.68V49.82C36.61 48.8 36.94 48.54 37.96 48.54ZM42.04 52.95V49.51H37.87V52.95H42.04Z" fill="white"/>
<path d="M45.87 48.54H49.36C51.39 48.54 52.47 49.54 52.47 51.22C52.47 52.24 52.03 53.08 51.27 53.55C50.74 53.88 50.01 53.97 49.04 53.97H45.87V48.54ZM48.76 52.95C50.36 52.95 51.16 52.55 51.16 51.2C51.16 50.09 50.56 49.51 49.37 49.51H47.13V52.95H48.76Z" fill="white"/>
<path d="M59.79 49.51V52.95H63.2V51.78L64.46 52.04V52.68C64.46 53.7 64.13 53.96 63.11 53.96H59.87C58.85 53.96 58.52 53.7 58.52 52.68V49.82C58.52 48.8 58.85 48.54 59.87 48.54H63.11C64.13 48.54 64.46 48.8 64.46 49.82V50.34L63.2 50.54V49.51H59.79Z" fill="#F8DE2D"/>
<path d="M68.19 48.54H72.19C73.21 48.54 73.54 48.8 73.54 49.82V52.68C73.54 53.7 73.21 53.96 72.19 53.96H68.19C67.17 53.96 66.84 53.7 66.84 52.68V49.82C66.84 48.8 67.17 48.54 68.19 48.54ZM72.27 52.95V49.51H68.1V52.95H72.27Z" fill="#F8DE2D"/>
<path d="M76.1 48.54H77.36V53.97H76.1V48.54Z" fill="#F8DE2D"/>
<path d="M80.02 48.54H80.88L84.7 51.74C84.92 51.92 85.13 52.11 85.32 52.33C85.29 51.88 85.27 51.56 85.27 51.39V48.54H86.41V53.97H85.55L81.56 50.61C81.4 50.47 81.25 50.34 81.11 50.17C81.15 50.59 81.16 50.88 81.16 51.03V53.97H80.02V48.54Z" fill="#F8DE2D"/>
<path d="M90.22 49.4901V50.66H93.61C94.63 50.66 94.97 50.92 94.97 51.94V52.69C94.97 53.71 94.63 53.9701 93.61 53.9701H90.25C89.23 53.9701 88.89 53.71 88.89 52.69V52.5401L90.01 52.3101V52.9501H93.85V51.71H90.46C89.44 51.71 89.11 51.45 89.11 50.43V49.8301C89.11 48.8101 89.44 48.55 90.46 48.55H93.54C94.51 48.55 94.89 48.8001 94.89 49.7401V49.8601L93.77 50.12V49.5H90.21L90.22 49.4901Z" fill="#F8DE2D"/>
<path d="M98.39 52.3401C98.6 52.3401 98.64 52.4701 98.64 52.7301V53.5801C98.64 53.9701 98.56 53.9701 98.2 53.9701H97.26C97.05 53.9701 97.01 53.8401 97.01 53.5801V52.7301C97.01 52.3401 97.09 52.3401 97.45 52.3401H98.39Z" fill="#F8DE2D"/>
<path d="M102 49.51V52.95H105.41V51.78L106.67 52.04V52.68C106.67 53.7 106.34 53.96 105.32 53.96H102.08C101.06 53.96 100.73 53.7 100.73 52.68V49.82C100.73 48.8 101.06 48.54 102.08 48.54H105.32C106.34 48.54 106.67 48.8 106.67 49.82V50.34L105.41 50.54V49.51H102Z" fill="#F8DE2D"/>
<path d="M110.41 48.54H114.41C115.43 48.54 115.76 48.8 115.76 49.82V52.68C115.76 53.7 115.43 53.96 114.41 53.96H110.41C109.39 53.96 109.06 53.7 109.06 52.68V49.82C109.06 48.8 109.39 48.54 110.41 48.54ZM114.49 52.95V49.51H110.32V52.95H114.49Z" fill="#F8DE2D"/>
<path d="M118.3 48.54H119.32L121.88 51.82L124.39 48.54H125.4V53.97H124.23V50.61C124.23 50.51 124.24 50.32 124.27 50.03C124.15 50.27 124.05 50.47 123.95 50.6L121.91 53.32H121.66L119.62 50.59C119.49 50.42 119.38 50.24 119.29 50.03C119.31 50.25 119.32 50.43 119.32 50.61V53.97H118.3V48.54Z" fill="#F8DE2D"/>
<path d="M63.62 4.58997L67.73 17.23H81.02L70.26 25.04L74.37 37.68L63.62 29.87L52.87 37.68L56.97 25.04L46.22 17.23H59.51L63.62 4.58997Z" fill="#F8DE2D"/>
<path d="M40.73 22.89C40.73 10.27 51 0 63.62 0C76.24 0 86.51 10.27 86.51 22.89C86.51 35.51 76.24 45.78 63.62 45.78C51 45.78 40.73 35.51 40.73 22.89ZM85.54 22.89C85.54 10.8 75.71 0.97 63.62 0.97C51.53 0.97 41.7 10.8 41.7 22.89C41.7 34.98 51.53 44.81 63.62 44.81C75.71 44.81 85.54 34.98 85.54 22.89Z" fill="#F8DE2D"/>
<path d="M43.75 22.89C43.75 11.93 52.66 3.02002 63.62 3.02002C74.58 3.02002 83.49 11.93 83.49 22.89C83.49 33.85 74.58 42.76 63.62 42.76C52.66 42.76 43.75 33.85 43.75 22.89ZM81.9 22.89C81.9 12.81 73.7 4.61002 63.62 4.61002C53.54 4.61002 45.34 12.81 45.34 22.89C45.34 32.97 53.54 41.17 63.62 41.17C73.7 41.17 81.9 32.97 81.9 22.89Z" fill="#F8DE2D"/>
</g>
<defs>
<clipPath id="clip0_22_1976">
<rect width="126.78" height="53.98" fill="white"/>
</clipPath>
</defs>
</svg>
